<?xml version="1.0" standalone="no"?>
<!DOCTYPE svg PUBLIC "-//W3C//DTD SVG 20010904//EN"
 "http://www.w3.org/TR/2001/REC-SVG-20010904/DTD/svg10.dtd">
<svg version="1.0" xmlns="http://www.w3.org/2000/svg"
 width="980.000000pt" height="980.000000pt" viewBox="0 0 980.000000 980.000000"
 preserveAspectRatio="xMidYMid meet">
<metadata>
Created by potrace 1.16, written by Peter Selinger 2001-2019
</metadata>
<g transform="translate(0.000000,980.000000) scale(0.100000,-0.100000)"
fill="#000000" stroke="none">
<path d="M6785 9454 c-167 -4 -1512 -18 -3140 -34 -1321 -13 -1536 -20 -1625
-49 -157 -50 -312 -182 -388 -328 -75 -145 -82 -190 -82 -548 l0 -312 -42 -7
c-151 -23 -217 -91 -154 -159 l24 -26 -24 -22 c-65 -61 8 -140 164 -179 l42
-11 0 -139 0 -139 -47 -7 c-27 -3 -72 -15 -100 -26 -83 -30 -105 -81 -60 -134
l23 -27 -23 -23 c-61 -61 7 -139 155 -174 l52 -12 2 -59 c4 -124 10 -111 -54
-125 -105 -24 -178 -77 -178 -129 0 -12 11 -32 25 -45 l24 -23 -24 -29 c-34
-40 -32 -71 5 -102 31 -26 115 -56 156 -56 55 0 54 2 54 -195 l0 -182 -59 -6
c-147 -16 -221 -91 -157 -160 l24 -26 -24 -22 c-31 -29 -30 -60 1 -97 30 -36
74 -58 160 -79 l65 -16 0 -98 0 -99 -27 -6 c-62 -13 -118 -39 -149 -68 -45
-43 -49 -66 -19 -109 13 -21 21 -37 16 -37 -5 0 -16 -16 -25 -35 -15 -31 -15
-38 -2 -63 19 -37 87 -70 161 -78 l55 -7 0 -147 0 -148 -37 -7 c-85 -15 -165
-65 -184 -113 -10 -25 13 -82 32 -82 5 0 1 -12 -10 -27 -36 -52 -36 -70 1
-107 35 -35 115 -66 170 -66 l28 0 0 -82 c0 -46 3 -140 7 -210 l6 -128 -36 0
c-52 0 -136 -19 -179 -41 -62 -31 -75 -78 -35 -125 l23 -27 -23 -23 c-63 -63
15 -145 168 -175 35 -7 67 -15 71 -18 3 -3 8 -79 10 -169 l3 -162 -37 0 c-53
0 -137 -19 -180 -41 -62 -31 -75 -78 -35 -125 l23 -27 -23 -23 c-13 -13 -23
-34 -23 -48 0 -51 96 -113 206 -131 80 -14 74 -3 74 -141 0 -115 -1 -124 -19
-124 -10 0 -49 -9 -86 -21 -121 -37 -172 -113 -116 -173 20 -21 20 -24 5 -37
-72 -59 0 -149 131 -165 105 -12 92 42 98 -421 5 -443 8 -467 67 -598 36 -80
132 -207 209 -277 77 -69 201 -133 302 -154 65 -14 141 -15 609 -10 294 3
1192 13 1995 21 2515 27 2617 29 2705 54 128 38 225 95 321 191 120 119 188
247 208 395 5 33 3 562 -5 1175 -7 613 -18 1601 -24 2195 -7 594 -20 1739 -29
2545 l-18 1465 -22 65 c-87 250 -340 477 -616 550 -86 23 -241 30 -540 24z
m515 -293 c52 -18 147 -61 210 -95 189 -101 300 -227 362 -411 l23 -70 3
-3495 c3 -3912 9 -3577 -71 -3740 -58 -119 -168 -230 -287 -289 -157 -77 47
-72 -2710 -69 l-2465 3 -65 23 c-58 20 -161 71 -117 58 143 -44 161 -45 547
-37 l205 5 -320 6 c-357 7 -380 11 -530 88 -106 55 -230 182 -284 292 -64 130
-71 181 -71 512 l0 288 23 4 c12 2 79 9 149 15 116 11 130 10 154 -6 64 -42
175 -8 209 64 44 91 -12 199 -108 210 -60 7 -90 -1 -130 -37 -32 -28 -38 -29
-165 -36 l-132 -7 0 323 0 323 132 -6 c128 -6 132 -7 162 -36 112 -106 277
-16 253 137 -8 46 -73 111 -114 114 -51 2 -88 -3 -110 -17 -17 -12 -38 -12
-105 -5 -45 6 -106 10 -135 10 -90 0 -83 -22 -83 277 l0 266 132 -7 c132 -8
132 -8 169 -41 52 -47 106 -54 166 -23 98 50 112 169 29 247 -34 32 -119 41
-164 17 -28 -14 -44 -15 -114 -6 -46 5 -113 10 -150 10 l-68 0 0 220 0 220 43
0 c23 0 89 5 147 11 93 10 109 10 137 -5 18 -9 55 -16 83 -16 45 0 55 4 91 38
87 82 53 221 -62 252 -50 14 -102 0 -140 -36 -24 -23 -41 -28 -111 -35 -46 -4
-107 -8 -136 -8 l-52 -1 2 248 3 247 55 2 c30 2 96 7 145 13 79 10 95 9 124
-6 113 -56 230 24 218 149 -4 43 -10 56 -45 89 -37 34 -47 38 -92 38 -56 0
-81 -10 -120 -46 -23 -21 -38 -24 -158 -30 l-132 -7 0 293 0 293 131 -6 c121
-5 134 -8 158 -30 38 -36 65 -47 113 -47 154 0 205 207 68 278 -54 27 -84 28
-133 3 -38 -19 -91 -18 -294 5 l-43 5 0 189 0 188 88 7 c48 4 114 10 148 14
47 5 69 3 100 -11 50 -23 91 -23 134 1 51 26 80 74 80 130 0 133 -145 197
-251 111 -41 -33 -44 -33 -166 -39 -69 -3 -127 -4 -129 -2 -10 10 -4 540 6
546 6 4 65 3 131 0 117 -7 121 -9 160 -40 50 -42 102 -52 157 -29 53 21 84 63
90 124 5 52 -10 90 -52 129 -34 32 -119 41 -164 17 -27 -14 -47 -14 -181 -4
l-151 12 0 240 0 239 131 -6 c127 -6 132 -7 165 -37 41 -36 70 -44 130 -37
140 15 170 207 43 275 -48 26 -104 24 -147 -4 -18 -12 -36 -13 -104 -4 -46 5
-107 10 -138 10 -30 0 -61 4 -68 9 -11 7 -13 56 -10 252 4 236 5 247 32 324
75 215 238 370 448 425 71 19 138 19 2533 17 l2460 -2 95 -34z m-5313 -1054
c0 -1 -1 -24 -4 -50 l-6 -48 -66 6 c-36 3 -92 8 -123 11 l-58 6 0 45 0 46 128
-8 c70 -4 128 -7 129 -8z m-14 -683 c14 -5 16 -13 11 -47 -4 -23 -8 -43 -9
-45 -2 -2 -56 0 -122 5 l-118 8 -3 48 -3 49 113 -7 c62 -4 121 -9 131 -11z
m10 -771 c3 -27 4 -50 2 -52 -2 -1 -60 -5 -129 -8 l-126 -6 0 45 0 46 113 9
c61 6 117 11 123 11 6 1 14 -19 17 -45z m3 -576 c1 -1 0 -24 -3 -50 l-6 -49
-56 6 c-31 3 -86 8 -123 12 l-68 6 0 46 0 45 127 -7 c70 -3 128 -8 129 -9z
m-3 -799 c3 -24 4 -45 1 -47 -7 -7 -130 -20 -196 -20 l-58 -1 0 44 0 45 53 5
c59 7 118 12 163 14 30 2 32 0 37 -40z m-3 -680 c0 -13 3 -33 6 -44 7 -25 -8
-29 -158 -40 l-98 -6 0 46 c0 51 3 53 95 59 145 10 155 9 155 -15z m2 -646 c4
-4 4 -26 1 -49 l-6 -42 -111 5 c-61 3 -117 7 -123 10 -8 2 -13 21 -13 50 l0
47 123 -8 c67 -3 125 -10 129 -13z m5 -736 c2 -1 0 -24 -3 -50 l-7 -47 -66 6
c-36 3 -92 8 -123 11 l-58 6 0 46 0 45 127 -7 c70 -3 128 -8 130 -10z m-7
-838 c0 -13 3 -33 6 -44 8 -28 -2 -31 -140 -40 l-116 -7 0 46 0 46 53 5 c186
21 197 20 197 -6z"/>
</g>
</svg>
